<svg width="32" height="32" viewBox="0 0 32 32" fill="none" xmlns="http://www.w3.org/2000/svg">
<path fill-rule="evenodd" clip-rule="evenodd" d="M16.0743 6.42627C17.564 5.05661 19.8008 4.09732 21.7329 4.00677L21.9945 3.99985C26.95 3.9728 30 6.92551 30 13C30 16.6687 27.0367 20.7838 21.1642 25.4541L20.3988 26.0533C20.2685 26.1537 20.137 26.2543 20.0042 26.3552L19.1913 26.9636C18.9151 27.1674 18.6337 27.3723 18.347 27.5781L17.4711 28.1989C17.1739 28.4069 16.8714 28.6159 16.5637 28.8259C16.2237 29.058 15.7761 29.058 15.4361 28.8259C14.513 28.1957 13.6371 27.5751 12.8085 26.9636L11.9957 26.3552C11.8628 26.2543 11.7313 26.1537 11.6011 26.0533L10.8356 25.4541C4.9633 20.7837 2 16.6687 2 13C2 6.9344 5.03331 4.00512 9.99906 3.99983C11.9699 3.99799 14.3588 4.98841 15.923 6.42429L15.999 6.497L16.0743 6.42627ZM28 13C28 8.04661 25.864 5.97876 22.0055 5.99982L21.778 6.00699C20.0119 6.1069 17.7815 7.22799 16.8135 8.58166C16.4147 9.13942 15.5856 9.13945 15.1867 8.58173C14.1761 7.1687 11.7696 5.99818 10.0011 5.99983C6.12341 6.00396 4 8.05455 4 13C4 15.4906 5.94462 18.521 9.86654 22.0254L10.4855 22.5682C10.9086 22.9326 11.3524 23.302 11.8172 23.6762L12.5299 24.2412L13.274 24.8134C13.4006 24.9094 13.5285 25.0057 13.6577 25.1023L14.4488 25.6853L15.2712 26.2755L15.6942 26.5733L16 26.785L16.7286 26.2755L17.5511 25.6853L18.3421 25.1023L19.1018 24.5264C19.9699 23.8588 20.774 23.2059 21.5144 22.5682L22.1334 22.0254C25.9548 18.6108 27.899 15.6463 27.9962 13.1927L28 13Z" fill="url(#paint0_linear_5_274)"/>
<defs>
<linearGradient id="paint0_linear_5_274" x1="2" y1="3.99966" x2="2" y2="29" gradientUnits="userSpaceOnUse">
<stop offset="0.00169362" stop-color="#A300FF"/>
<stop offset="1" stop-color="#2C00FF"/>
</linearGradient>
</defs>
</svg>
