<svg width="32" height="32" viewBox="0 0 32 32" fill="none" xmlns="http://www.w3.org/2000/svg">
<path fill-rule="evenodd" clip-rule="evenodd" d="M14.101 5.9273C14.0719 5.17168 14.2461 4.49857 14.7418 3.91014C15.9045 2.52979 18.08 2.78872 19.4622 4.18232C20.1671 4.89312 20.5882 5.80853 20.6271 6.71067L20.6378 6.75478C20.7752 7.43653 20.6993 8.30066 20.466 9.42125L20.3985 9.73327L20.3241 10.0546L20.1841 10.6169L19.873 11.765L20.3285 11.6891L20.6947 11.6367L20.9919 11.6008C21.1838 11.5797 21.3694 11.5632 21.5547 11.5508L21.6791 11.5432L22.0526 11.5285L22.3888 11.5268L22.5933 11.5314L22.9705 11.552L23.3677 11.5909L23.8857 11.6602L24.1759 11.6899C26.1216 11.9366 27.6349 13.552 27.6349 15.5191C27.6349 15.7857 27.6072 16.0488 27.553 16.3051L27.503 16.501L27.5579 16.5965C27.8093 17.0681 27.9592 17.5918 27.9928 18.137L28 18.3718C28 19.1236 27.779 19.8422 27.378 20.4498L27.348 20.491L27.3826 20.6471C27.4134 20.8133 27.4341 20.9819 27.4446 21.1521L27.4524 21.4086C27.4524 22.4194 27.0883 23.3722 26.451 24.1118L26.355 24.216L26.3652 24.4035C26.4598 27.5917 23.5931 28.9567 19.0989 28.999L18.8035 28.9999C17.1245 28.9944 15.1641 28.7855 13.4648 28.4942L12.8003 28.3735C11.6122 28.1453 10.6034 27.8814 9.98779 27.6294L9.87 27.573L9.72118 27.6214C9.64455 27.6429 9.56697 27.6617 9.48857 27.6776L9.25102 27.7168L5.67748 28.1736C4.6281 28.3076 3.65801 27.6001 3.45726 26.5605C3.15219 24.9812 3 23.3221 3 21.5837C3 19.7955 3.16104 18.0077 3.48297 16.2207C3.66303 15.2224 4.55603 14.5129 5.56791 14.5703L9.453 14.79L9.48277 14.7383C9.62409 14.4931 9.77428 14.2677 9.93274 14.0656L10.0939 13.8714L10.6008 13.2957L10.9371 12.9081L11.272 12.5076L11.4922 12.2286C11.9462 11.6352 12.288 11.0566 12.7215 10.1313L12.9485 9.63412L13.197 9.06543L13.5692 8.18122L14.177 6.68799L14.1449 6.42619L14.1149 6.14807L14.101 5.9273ZM18.63 6.84133C18.6279 6.44183 18.4203 5.97195 18.0421 5.5907L17.9202 5.47625C17.3007 4.93568 16.5492 4.8689 16.2714 5.1986C16.1383 5.35668 16.088 5.55099 16.0991 5.84168L16.1109 6.01425L16.1686 6.49135L16.1812 6.63704L16.1846 6.84305C16.179 6.99478 16.153 7.13798 16.0914 7.29089L15.6812 8.30361L15.2201 9.41816L14.946 10.06L14.7763 10.4461L14.5341 10.9767C14.0412 12.0286 13.6271 12.7295 13.0775 13.4479L12.9955 13.554L12.7339 13.8791L12.3591 14.3219L11.595 15.1932C11.3645 15.4548 11.1285 15.8508 10.9184 16.3311L10.5219 17.2375L9.61133 16.8508C9.52608 16.8145 9.43493 16.7932 9.33962 16.7877L5.45462 16.5671L5.33151 17.2913C5.11046 18.7226 5 20.1533 5 21.5837C5 23.1973 5.14055 24.7296 5.42098 26.1813C5.42228 26.188 5.42447 26.1896 5.42398 26.1897L8.99746 25.733C9.18432 25.7091 9.35974 25.6453 9.51567 25.5464L10.3697 25.0045L10.88 25.83L11.0716 25.8978C11.5664 26.0621 12.2637 26.2334 13.0711 26.3906L13.6958 26.5056C13.91 26.5428 14.1295 26.5788 14.3531 26.6132L15.0344 26.7117C15.6097 26.7893 16.2009 26.8553 16.7855 26.9045L17.4824 26.955C17.8278 26.976 18.1676 26.9901 18.4969 26.9963L18.8101 26.9999C22.5505 27.0121 24.4815 26.1095 24.3595 24.3298L24.3401 23.9927L24.2589 23.4086L24.6858 23.0524C25.1682 22.6498 25.4524 22.0541 25.4524 21.4086C25.4524 21.14 25.4037 20.8798 25.31 20.6364L25.0835 20.048L25.5169 19.5899C25.8254 19.264 26 18.8333 26 18.3718C26 17.963 25.8632 17.5782 25.6157 17.2676L25.238 16.7934L25.4837 16.2392C25.5829 16.0153 25.6349 15.7718 25.6349 15.5191C25.6349 14.5531 24.8426 13.7417 23.8157 13.6631L23.1314 13.5769L22.8866 13.5517L22.5656 13.5317L22.1905 13.5265L21.9951 13.5309L21.8432 13.5372L21.4523 13.5647L21.2163 13.5882L20.9498 13.6204C20.3154 13.7036 19.5998 13.8436 18.7901 14.0492L17.592 14.3533L17.5448 13.1181C17.5377 12.9335 17.5643 12.7445 17.6197 12.4851L17.6404 12.3918L17.735 12.0092L18.1894 10.3394L18.3234 9.81777L18.4476 9.29267L18.5461 8.82142C18.7052 7.99692 18.7457 7.3945 18.6651 7.09841L18.6308 6.97216L18.63 6.84133Z" fill="url(#paint0_linear_5_273)"/>
<path d="M10 26.152L8 26.149L8.01657 14.9985L10.0166 15.0015L10 26.152Z" fill="url(#paint1_linear_5_273)"/>
<defs>
<linearGradient id="paint0_linear_5_273" x1="3" y1="2.99652" x2="3" y2="28.9999" gradientUnits="userSpaceOnUse">
<stop offset="0.00169362" stop-color="#A300FF"/>
<stop offset="1" stop-color="#2C00FF"/>
</linearGradient>
<linearGradient id="paint1_linear_5_273" x1="8" y1="14.9985" x2="8" y2="26.152" gradientUnits="userSpaceOnUse">
<stop offset="0.00169362" stop-color="#A300FF"/>
<stop offset="1" stop-color="#2C00FF"/>
</linearGradient>
</defs>
</svg>
