<svg width="32" height="32" viewBox="0 0 32 32" fill="none" xmlns="http://www.w3.org/2000/svg">
<path fill-rule="evenodd" clip-rule="evenodd" d="M10 9C10 5.68629 12.6863 3 16 3C19.3137 3 22 5.68629 22 9C22 12.3137 19.3137 15 16 15C12.6863 15 10 12.3137 10 9ZM20 9C20 6.79086 18.2091 5 16 5C13.7909 5 12 6.79086 12 9C12 11.2091 13.7909 13 16 13C18.2091 13 20 11.2091 20 9Z" fill="url(#paint0_linear_5_276)"/>
<path fill-rule="evenodd" clip-rule="evenodd" d="M6 24.7782C6 19.8951 10.5069 16 16 16C21.4931 16 26 19.8951 26 24.7782C26 30.4073 6 30.4073 6 24.7782ZM24 24.7782C24 21.0697 20.4481 18 16 18C11.5519 18 8 21.0697 8 24.7782C8 25.8945 10.2718 26.5901 13.1033 26.8651L13.7659 26.9211C15.2196 27.0263 16.7804 27.0263 18.2341 26.9211L18.8967 26.8651C21.7282 26.5901 24 25.8945 24 24.7782Z" fill="url(#paint1_linear_5_276)"/>
<defs>
<linearGradient id="paint0_linear_5_276" x1="10" y1="3" x2="10" y2="15" gradientUnits="userSpaceOnUse">
<stop offset="0.00169362" stop-color="#A300FF"/>
<stop offset="1" stop-color="#2C00FF"/>
</linearGradient>
<linearGradient id="paint1_linear_5_276" x1="6" y1="16" x2="6" y2="29" gradientUnits="userSpaceOnUse">
<stop offset="0.00169362" stop-color="#A300FF"/>
<stop offset="1" stop-color="#2C00FF"/>
</linearGradient>
</defs>
</svg>
